<svg xmlns="http://www.w3.org/2000/svg" viewBox="0 0 512 512">
  <defs>
    <radialGradient id="ball" cx="38%" cy="32%" r="80%">
      <stop offset="0%" stop-color="#eaff8c"/><stop offset="55%" stop-color="#c2ee45"/><stop offset="100%" stop-color="#83bb2b"/>
    </radialGradient>
    <clipPath id="bedL"><ellipse cx="256" cy="150" rx="66" ry="88"/></clipPath>
    <clipPath id="bedR"><ellipse cx="256" cy="150" rx="66" ry="88"/></clipPath>
  </defs>
  <rect width="512" height="512" rx="115" fill="#ffffff"/>

  <!-- SOL RAKET (mavi) -->
  <g transform="rotate(-26 256 356)" fill="none" stroke="#2f80d6" stroke-linecap="round" stroke-linejoin="round">
    <path d="M212 234 Q244 298 256 304 Q268 298 300 234" stroke-width="22"/>
    <line x1="256" y1="298" x2="256" y2="448" stroke-width="24"/>
    <line x1="256" y1="410" x2="256" y2="452" stroke-width="34" stroke="#255f9e"/>
    <ellipse cx="256" cy="150" rx="84" ry="106" fill="#ffffff" stroke-width="24"/>
    <g clip-path="url(#bedL)"><g transform="rotate(45 256 150)" stroke-width="3.2">
      <line x1="164" y1="44" x2="164" y2="256"/><line x1="184" y1="44" x2="184" y2="256"/><line x1="204" y1="44" x2="204" y2="256"/><line x1="224" y1="44" x2="224" y2="256"/><line x1="244" y1="44" x2="244" y2="256"/><line x1="264" y1="44" x2="264" y2="256"/><line x1="284" y1="44" x2="284" y2="256"/><line x1="304" y1="44" x2="304" y2="256"/><line x1="324" y1="44" x2="324" y2="256"/><line x1="344" y1="44" x2="344" y2="256"/>
      <line x1="152" y1="58" x2="360" y2="58"/><line x1="152" y1="78" x2="360" y2="78"/><line x1="152" y1="98" x2="360" y2="98"/><line x1="152" y1="118" x2="360" y2="118"/><line x1="152" y1="138" x2="360" y2="138"/><line x1="152" y1="158" x2="360" y2="158"/><line x1="152" y1="178" x2="360" y2="178"/><line x1="152" y1="198" x2="360" y2="198"/><line x1="152" y1="218" x2="360" y2="218"/><line x1="152" y1="238" x2="360" y2="238"/>
    </g></g>
  </g>

  <!-- SAĞ RAKET (turuncu) -->
  <g transform="rotate(26 256 356)" fill="none" stroke="#f0821f" stroke-linecap="round" stroke-linejoin="round">
    <path d="M212 234 Q244 298 256 304 Q268 298 300 234" stroke-width="22"/>
    <line x1="256" y1="298" x2="256" y2="448" stroke-width="24"/>
    <line x1="256" y1="410" x2="256" y2="452" stroke-width="34" stroke="#c4661a"/>
    <ellipse cx="256" cy="150" rx="84" ry="106" fill="#ffffff" stroke-width="24"/>
    <g clip-path="url(#bedR)"><g transform="rotate(45 256 150)" stroke-width="3.2">
      <line x1="164" y1="44" x2="164" y2="256"/><line x1="184" y1="44" x2="184" y2="256"/><line x1="204" y1="44" x2="204" y2="256"/><line x1="224" y1="44" x2="224" y2="256"/><line x1="244" y1="44" x2="244" y2="256"/><line x1="264" y1="44" x2="264" y2="256"/><line x1="284" y1="44" x2="284" y2="256"/><line x1="304" y1="44" x2="304" y2="256"/><line x1="324" y1="44" x2="324" y2="256"/><line x1="344" y1="44" x2="344" y2="256"/>
      <line x1="152" y1="58" x2="360" y2="58"/><line x1="152" y1="78" x2="360" y2="78"/><line x1="152" y1="98" x2="360" y2="98"/><line x1="152" y1="118" x2="360" y2="118"/><line x1="152" y1="138" x2="360" y2="138"/><line x1="152" y1="158" x2="360" y2="158"/><line x1="152" y1="178" x2="360" y2="178"/><line x1="152" y1="198" x2="360" y2="198"/><line x1="152" y1="218" x2="360" y2="218"/><line x1="152" y1="238" x2="360" y2="238"/>
    </g></g>
  </g>

  <!-- TOP -->
  <g transform="translate(256 118)">
    <circle r="52" fill="url(#ball)" stroke="#5f8f22" stroke-width="3"/>
    <path d="M-18 -48 C -40 -17, -40 17, -18 48" fill="none" stroke="#ffffff" stroke-width="5" stroke-linecap="round"/>
    <path d="M18 -48 C 40 -17, 40 17, 18 48" fill="none" stroke="#ffffff" stroke-width="5" stroke-linecap="round"/>
    <ellipse cx="-15" cy="-19" rx="16" ry="9" fill="#ffffff" opacity="0.30" transform="rotate(-28 -15 -19)"/>
  </g>
</svg>
