<svg xmlns="http://www.w3.org/2000/svg" viewBox="0 0 512 512">
  <defs>
    <radialGradient id="ball" cx="38%" cy="32%" r="80%">
      <stop offset="0%" stop-color="#eaff8c"/><stop offset="55%" stop-color="#c2ee45"/><stop offset="100%" stop-color="#83bb2b"/>
    </radialGradient>
    <clipPath id="bedL"><ellipse cx="256" cy="152" rx="70" ry="94"/></clipPath>
    <clipPath id="bedR"><ellipse cx="256" cy="152" rx="70" ry="94"/></clipPath>
  </defs>

  <rect width="512" height="512" rx="115" fill="#ffffff"/>

  <!-- SOL RAKET (mavi) -->
  <g transform="rotate(-27 256 350)">
    <rect x="241" y="300" width="30" height="150" rx="9" fill="#2f80d6"/>
    <rect x="237" y="410" width="38" height="52" rx="12" fill="#255f9e"/>
    <path d="M256 250 L230 316 L282 316 Z" fill="#2f80d6"/>
    <ellipse cx="256" cy="152" rx="86" ry="110" fill="#ffffff" stroke="#2f80d6" stroke-width="22"/>
    <g clip-path="url(#bedL)"><g transform="rotate(45 256 152)" stroke="#2f80d6" stroke-width="3.4">
      <line x1="160" y1="40" x2="160" y2="264"/><line x1="182" y1="40" x2="182" y2="264"/><line x1="204" y1="40" x2="204" y2="264"/><line x1="226" y1="40" x2="226" y2="264"/><line x1="248" y1="40" x2="248" y2="264"/><line x1="270" y1="40" x2="270" y2="264"/><line x1="292" y1="40" x2="292" y2="264"/><line x1="314" y1="40" x2="314" y2="264"/><line x1="336" y1="40" x2="336" y2="264"/><line x1="352" y1="40" x2="352" y2="264"/>
      <line x1="144" y1="56" x2="368" y2="56"/><line x1="144" y1="78" x2="368" y2="78"/><line x1="144" y1="100" x2="368" y2="100"/><line x1="144" y1="122" x2="368" y2="122"/><line x1="144" y1="144" x2="368" y2="144"/><line x1="144" y1="166" x2="368" y2="166"/><line x1="144" y1="188" x2="368" y2="188"/><line x1="144" y1="210" x2="368" y2="210"/><line x1="144" y1="232" x2="368" y2="232"/><line x1="144" y1="248" x2="368" y2="248"/>
    </g></g>
  </g>

  <!-- SAĞ RAKET (turuncu) -->
  <g transform="rotate(27 256 350)">
    <rect x="241" y="300" width="30" height="150" rx="9" fill="#f0821f"/>
    <rect x="237" y="410" width="38" height="52" rx="12" fill="#c4661a"/>
    <path d="M256 250 L230 316 L282 316 Z" fill="#f0821f"/>
    <ellipse cx="256" cy="152" rx="86" ry="110" fill="#ffffff" stroke="#f0821f" stroke-width="22"/>
    <g clip-path="url(#bedR)"><g transform="rotate(45 256 152)" stroke="#f0821f" stroke-width="3.4">
      <line x1="160" y1="40" x2="160" y2="264"/><line x1="182" y1="40" x2="182" y2="264"/><line x1="204" y1="40" x2="204" y2="264"/><line x1="226" y1="40" x2="226" y2="264"/><line x1="248" y1="40" x2="248" y2="264"/><line x1="270" y1="40" x2="270" y2="264"/><line x1="292" y1="40" x2="292" y2="264"/><line x1="314" y1="40" x2="314" y2="264"/><line x1="336" y1="40" x2="336" y2="264"/><line x1="352" y1="40" x2="352" y2="264"/>
      <line x1="144" y1="56" x2="368" y2="56"/><line x1="144" y1="78" x2="368" y2="78"/><line x1="144" y1="100" x2="368" y2="100"/><line x1="144" y1="122" x2="368" y2="122"/><line x1="144" y1="144" x2="368" y2="144"/><line x1="144" y1="166" x2="368" y2="166"/><line x1="144" y1="188" x2="368" y2="188"/><line x1="144" y1="210" x2="368" y2="210"/><line x1="144" y1="232" x2="368" y2="232"/><line x1="144" y1="248" x2="368" y2="248"/>
    </g></g>
  </g>

  <!-- TOP (üst orta, çentikte) -->
  <g transform="translate(256 116)">
    <circle r="54" fill="url(#ball)" stroke="#5f8f22" stroke-width="3"/>
    <path d="M-19 -50 C -42 -18, -42 18, -19 50" fill="none" stroke="#ffffff" stroke-width="5" stroke-linecap="round"/>
    <path d="M19 -50 C 42 -18, 42 18, 19 50" fill="none" stroke="#ffffff" stroke-width="5" stroke-linecap="round"/>
    <ellipse cx="-16" cy="-20" rx="17" ry="10" fill="#ffffff" opacity="0.30" transform="rotate(-28 -16 -20)"/>
  </g>
</svg>
